<?xml version="1.0" encoding="UTF-8"?><svg id="b" xmlns="http://www.w3.org/2000/svg" viewBox="0 0 192.24 192.32"><g id="c"><g><g><path d="M18.65,60.77c.37-.61,.84-.86,1.68-.59,1.02,.29,2.21,.74,3.04,1.05,.82,.31,2.02,.76,2.97,1.22,.81,.35,1,.85,.87,1.55-.09,.62-1.17,3.6-1.88,5.5-.71,1.89-1.87,4.84-2.21,5.37-.37,.61-.84,.86-1.68,.59-1.02-.29-2.21-.74-3.04-1.05s-2.02-.76-2.97-1.21c-.81-.35-1-.85-.87-1.55,.09-.62,1.17-3.6,1.88-5.5s1.87-4.84,2.21-5.37Z" style="fill:#34a245; stroke:#121e2c; stroke-miterlimit:10;"/><path d="M29.24,27.64c2.63-2.33,4.16-2.7,6.8-1.66,1.91,.82,5.54,3.34,8.98,6.28,3.45,2.94,6.51,6.14,7.61,7.89,1.44,2.45,1.31,4.02-.58,6.97-1.17,1.84-3.76,5.01-6.01,7.65-6.32,7.4-7.81,9.01-8.45,9.62-.67,.65-1.25,.72-2.12,.04-2.8-2.21-6.54-5.42-10.46-8.76s-7.66-6.54-10.29-8.96c-.81-.75-.82-1.34-.29-2.1,.5-.73,1.87-2.46,8.18-9.85,2.26-2.64,4.98-5.7,6.62-7.14Zm-.7,13.35l5.22,4.46c1.87,1.6,3.98,3.4,5.22,4.46,.5,.43,.75,.41,1.49-.46,.29-.33,.57-.67,.96-1.26,.36-.56,.18-.89-.47-1.55-.88-.87-2.79-2.56-4.67-4.16s-3.84-3.22-4.84-3.96c-.76-.53-1.11-.66-1.61-.22-.52,.48-.81,.81-1.1,1.15-.74,.87-.72,1.12-.22,1.55Z" style="fill:#34a245; stroke:#121e2c; stroke-miterlimit:10;"/><path d="M53.32,10.6c.85-.38,1.42-.26,2.01,.67,1.88,3.03,4.33,7.31,6.89,11.78,2.6,4.55,5,8.75,6.66,11.91,.51,.98,.32,1.54-.44,2.07-.72,.51-2.78,1.79-4.69,2.88-1.91,1.09-4.05,2.22-4.86,2.58-.85,.38-1.42,.26-2.01-.68-1.88-3.03-4.29-7.23-6.89-11.78-2.56-4.47-5-8.75-6.66-11.9-.51-.98-.32-1.54,.44-2.07,.72-.51,2.78-1.79,4.69-2.88,1.91-1.09,4.05-2.22,4.86-2.58Z" style="fill:#34a245; stroke:#121e2c; stroke-miterlimit:10;"/><path d="M102.69,28.4c.11,.78-.22,1.27-1.08,1.48-.86,.21-3.29,.63-5.29,.91-2,.28-3.97,.5-4.86,.54-1.46,.07-1.7-.12-2.2-1.78l-.74-2.47-4.62,.64-.04,2.58c-.03,1.74-.21,1.98-1.63,2.31-.86,.21-2.82,.52-4.82,.8-2,.28-4.46,.53-5.34,.56-.88,.03-1.34-.35-1.44-1.13-.1-.7-.03-1.82,.08-2.94l2.35-25.51c.08-1.03,.6-1.46,1.64-1.65,1.04-.19,5.34-.87,7.96-1.23,2.62-.36,6.94-.87,8-.97,1.05-.1,1.67,.17,2.02,1.14l9.16,23.92c.41,1.05,.78,2.11,.88,2.81Zm-19.05-7.99l3.14-.43-2.86-9.82-.17,.02-.1,10.23Z" style="fill:#34a245; stroke:#121e2c; stroke-miterlimit:10;"/><path d="M134.7,8.98c.77,.21,2.93,.95,4.37,1.51,1.76,.69,3.7,1.53,4.36,1.89,.71,.37,.89,.87,.53,1.9-1.17,3.37-2.94,7.92-4.84,12.8-1.87,4.8-3.66,9.39-5.07,12.66-.44,1.01-.87,1.27-1.64,1.06-.77-.21-2.81-.91-4.53-1.58-1.48-.57-2.49-1.01-3.15-1.37-1.93-.99-2.24-1.39-2.58-3.32l-2-10.98-3.62,9.31c-.4,1.02-.83,1.28-1.64,1.06-.77-.21-2.93-.95-4.37-1.51-1.76-.69-3.7-1.53-4.36-1.89-.71-.37-.89-.87-.53-1.91,1.17-3.37,2.93-7.88,4.83-12.76,1.87-4.8,3.65-9.39,5.07-12.66,.44-1.01,.99-1.22,1.89-.97,.85,.24,3.1,1.02,4.41,1.53,1.07,.42,2.36,.97,2.84,1.2,1.93,.99,2.23,1.43,2.56,3.36l2.08,11.39,3.77-9.68c.4-1.02,.83-1.28,1.64-1.06Z" style="fill:#34a245; stroke:#121e2c; stroke-miterlimit:10;"/><path d="M156.97,66.35c-.61,.51-1.2,.48-1.83-.14-.63-.62-2.27-2.46-3.56-4.02-1.29-1.56-2.52-3.11-3.02-3.84-.83-1.2-.8-1.51,.36-2.81l1.71-1.93-2.98-3.59-2.22,1.32c-1.49,.89-1.8,.86-2.83-.17-.63-.62-1.93-2.12-3.22-3.67s-2.8-3.51-3.29-4.24-.41-1.32,.2-1.82c.54-.45,1.53-.98,2.54-1.48l22.91-11.46c.92-.48,1.56-.26,2.26,.52,.71,.78,3.56,4.08,5.24,6.11,1.69,2.03,4.4,5.44,5.04,6.28,.64,.84,.73,1.51,.1,2.32l-15.49,20.4c-.68,.91-1.38,1.78-1.93,2.23Zm-3.26-20.39l2.02,2.44,6.83-7.61-.11-.14-8.74,5.31Z" style="fill:#34a245; stroke:#121e2c; stroke-miterlimit:10;"/><path d="M176.96,71.57c.13,.71-.06,1.2-.87,1.55-.96,.46-2.15,.91-2.97,1.22-.82,.31-2.02,.76-3.04,1.06-.84,.27-1.31,.02-1.68-.59-.34-.53-1.5-3.48-2.22-5.37-.72-1.89-1.79-4.87-1.89-5.49-.12-.71,.06-1.2,.87-1.55,.96-.46,2.15-.91,2.97-1.22,.82-.31,2.02-.76,3.04-1.05,.84-.27,1.31-.02,1.68,.59,.34,.53,1.5,3.48,2.22,5.37s1.79,4.87,1.89,5.49Z" style="fill:#34a245; stroke:#121e2c; stroke-miterlimit:10;"/></g><g><path d="M.6,91.68c-.07-.88-.13-3.04-.09-5.28,.04-2.16,.16-4.31,.26-5.19,.1-.92,.51-1.36,1.61-1.38,3.57-.07,8.4,0,13.64,.09,5.15,.08,10.03,.16,13.59,.35,1.1,.06,1.53,.51,1.56,1.43,.1,2.03,.08,8.41,0,13.77-.05,2.95-.2,6.86-.46,9.37-.52,5.18-2.04,6.08-10.48,5.95-8.09-.13-9.88-1.13-10.24-6.28-.18-2.51-.25-6.43-.2-9.38l.02-1.5c0-.31-.12-.44-.43-.45l-7.21-.12c-1.1-.02-1.49-.46-1.56-1.39Zm22.02,1.68l-4.22-.07c-.66-.01-.88,.12-.89,.43l-.05,2.77c-.01,.66,.16,.79,.87,.94,.53,.14,1.32,.2,2.11,.21,.79,.01,1.58-.02,2.11-.14,.71-.12,.88-.25,.9-.91l.04-2.77c0-.31-.26-.44-.87-.45Z" style="fill:#34a245; stroke:#121e2c; stroke-miterlimit:10;"/><path d="M18.21,151.92c-.24,.12-.45,.17-.69,.09-.29-.1-.57-.36-.9-.94-.62-1.07-1.53-2.83-2.29-4.37s-1.59-3.24-2.07-4.52c-.58-1.58-.43-2.19,.74-3.4l5.32-5.45-.68-1.38-6.88,3.37c-.99,.48-1.54,.26-2.02-.53-.47-.75-1.43-2.53-2.42-4.55-.95-1.94-1.72-3.71-2.03-4.54-.33-.87-.17-1.44,.8-1.96,3.14-1.69,7.49-3.81,12.19-6.12,4.62-2.26,9.01-4.41,12.27-5.86,1.01-.44,1.56-.22,2.04,.57,1.05,1.74,3.93,7.53,6.1,11.96,1.49,3.04,3.09,6.52,4,8.87,1.89,4.86,.67,6.48-6.08,9.79-6.05,2.96-7.76,2.87-9.92,.15l-6.12,7.6c-.68,.82-1.05,1.05-1.37,1.21Zm9.22-19.8c.53-.11,1.18-.38,1.9-.73,.71-.35,1.32-.7,1.74-1.05,.57-.43,.67-.62,.38-1.22l-1.37-2.81c-.14-.28-.43-.28-.98,0l-3.64,1.78c-.59,.29-.73,.51-.6,.78l1.37,2.81c.29,.59,.51,.63,1.2,.44Z" style="fill:#34a245; stroke:#121e2c; stroke-miterlimit:10;"/><path d="M55.08,146.74c.61,.7,.65,1.29-.07,2.12-2.36,2.67-5.76,6.24-9.31,9.97-3.61,3.79-6.95,7.29-9.5,9.78-.79,.77-1.38,.75-2.11,.18-.7-.54-2.51-2.15-4.1-3.67-1.59-1.52-3.28-3.25-3.86-3.92-.61-.7-.65-1.29,.07-2.12,2.36-2.67,5.7-6.17,9.31-9.97,3.55-3.73,6.95-7.29,9.5-9.79,.79-.77,1.38-.75,2.11-.18,.7,.54,2.51,2.15,4.1,3.67s3.28,3.25,3.86,3.92Z" style="fill:#34a245; stroke:#121e2c; stroke-miterlimit:10;"/><path d="M72.54,182.13c-.32,.82-.68,1.62-1.08,2.51s-.81,1.81-1.21,2.59c-.49,.99-1.17,1.11-2.05,.82-1.26-.42-9.03-3.85-11.16-4.8-2.21-.99-9.32-4.17-11.13-5.18-.81-.46-1.05-1-.64-2.02,1.34-3.31,3.35-7.81,5.46-12.5,2.1-4.7,4.12-9.2,5.7-12.4,.49-.99,1.05-1.17,1.93-.87,1.96,.69,9.07,3.87,11.28,4.86,2.13,.95,9.86,4.47,11.01,5.13,.81,.46,1.17,1.05,.76,2.07-.32,.82-.73,1.75-1.13,2.63-.4,.88-.76,1.69-1.16,2.47-.42,.83-.78,1-1.51,.67l-11.69-5.24c-.36-.16-.55-.05-.81,.51l-.68,1.53c-.25,.56-.17,.7,.19,.86l10.88,4.88c.68,.31,.91,.55,.64,1.25-.32,.82-.73,1.75-1.09,2.55-.36,.8-.77,1.73-1.17,2.51-.35,.67-.68,.66-1.36,.35l-10.88-4.88c-.36-.16-.55-.05-.81,.51l-.68,1.53c-.25,.56-.17,.7,.19,.86l11.69,5.24c.72,.32,.84,.71,.5,1.57Z" style="fill:#34a245; stroke:#121e2c; stroke-miterlimit:10;"/><path d="M107.72,160.55c3.49,.32,4.81,1.18,5.86,3.82,.71,1.95,1.36,6.32,1.57,10.85s-.02,8.94-.54,10.95c-.8,2.72-2.03,3.71-5.48,4.35-2.14,.41-6.22,.69-9.69,.85-9.71,.46-11.91,.47-12.8,.43-.93-.04-1.38-.42-1.48-1.52-.3-3.55-.53-8.48-.78-13.62-.24-5.14-.47-10.06-.51-13.63,0-1.1,.41-1.52,1.33-1.65,.88-.13,3.07-.32,12.78-.78,3.47-.16,7.56-.27,9.73-.06Zm-10.21,8.63l.32,6.86c.12,2.46,.25,5.23,.32,6.86,.03,.66,.21,.83,1.36,.77,.44-.02,.88-.04,1.58-.16,.66-.12,.77-.48,.81-1.41,.03-1.23-.05-3.79-.16-6.25s-.28-5.01-.43-6.23c-.13-.92-.28-1.26-.94-1.32-.71-.05-1.15-.03-1.59-.01-1.14,.05-1.31,.24-1.28,.9Z" style="fill:#34a245; stroke:#121e2c; stroke-miterlimit:10;"/><path d="M125.87,153.68c.89-.28,1.44-.08,1.91,.92,1.5,3.23,3.41,7.78,5.4,12.52,2.02,4.83,3.9,9.29,5.15,12.63,.38,1.03,.13,1.57-.69,2.01-.78,.42-2.98,1.44-5,2.29-2.03,.85-4.29,1.71-5.14,1.96-.89,.28-1.45,.08-1.91-.92-1.5-3.23-3.37-7.7-5.4-12.52-1.99-4.75-3.9-9.29-5.15-12.63-.38-1.03-.13-1.57,.69-2,.78-.42,2.97-1.44,5-2.29,2.03-.85,4.29-1.71,5.14-1.96Z" style="fill:#34a245; stroke:#121e2c; stroke-miterlimit:10;"/><path d="M165.59,151.46c.63,.62,1.22,1.27,1.88,1.98,.66,.71,1.34,1.46,1.9,2.14,.71,.84,.56,1.52-.06,2.21-.88,.99-7.11,6.77-8.83,8.35-1.78,1.64-7.52,6.91-9.16,8.18-.74,.56-1.33,.57-2.11-.21-2.51-2.54-5.84-6.17-9.33-9.96-3.48-3.79-6.82-7.42-9.13-10.14-.71-.84-.66-1.43-.03-2.12,1.4-1.53,7.14-6.8,8.92-8.43,1.72-1.58,8-7.29,9.06-8.09,.74-.56,1.43-.66,2.21,.12,.63,.62,1.31,1.36,1.97,2.08,.65,.71,1.25,1.36,1.81,2.04,.59,.71,.61,1.12,.02,1.65l-9.43,8.66c-.29,.27-.27,.49,.15,.94l1.13,1.23c.42,.45,.57,.43,.87,.16l8.78-8.07c.55-.51,.87-.62,1.41-.1,.63,.62,1.31,1.36,1.91,2.01,.59,.65,1.28,1.39,1.84,2.07,.47,.58,.34,.89-.21,1.39l-8.78,8.07c-.29,.27-.27,.49,.15,.94l1.13,1.23c.42,.45,.57,.43,.87,.16l9.43-8.66c.58-.54,.99-.49,1.64,.16Z" style="fill:#34a245; stroke:#121e2c; stroke-miterlimit:10;"/><path d="M158.12,114.3c.19-.77,.91-2.95,1.45-4.39,.66-1.77,1.48-3.72,1.83-4.39,.36-.71,.85-.9,1.9-.56,3.38,1.12,7.96,2.83,12.86,4.66,4.82,1.8,9.44,3.53,12.73,4.9,1.01,.43,1.28,.85,1.08,1.63-.19,.77-.87,2.82-1.51,4.55-.55,1.48-.98,2.5-1.33,3.17-.96,1.94-1.36,2.26-3.28,2.62l-10.95,2.16,9.36,3.5c1.03,.38,1.29,.81,1.08,1.63-.2,.77-.91,2.95-1.45,4.39-.66,1.77-1.48,3.72-1.83,4.39-.36,.71-.85,.9-1.9,.56-3.38-1.12-7.92-2.82-12.82-4.65-4.82-1.8-9.44-3.53-12.73-4.9-1.02-.43-1.23-.98-.99-1.87,.23-.86,.97-3.11,1.47-4.43,.4-1.07,.93-2.38,1.16-2.85,.96-1.94,1.4-2.25,3.32-2.61l11.36-2.24-9.73-3.63c-1.03-.38-1.29-.81-1.08-1.62Z" style="fill:#34a245; stroke:#121e2c; stroke-miterlimit:10;"/><path d="M188.63,74.41c.79-.04,1.25,.33,1.39,1.2,.14,.87,.37,3.33,.48,5.35,.12,2.02,.19,4,.15,4.88-.05,1.46-.26,1.69-1.95,2.05l-2.53,.54,.27,4.66,2.57,.25c1.73,.17,1.96,.37,2.18,1.81,.14,.87,.29,2.85,.41,4.87s.17,4.49,.13,5.37c-.04,.88-.45,1.3-1.25,1.35-.7,.04-1.81-.12-2.93-.32l-25.24-4.37c-1.02-.16-1.41-.71-1.51-1.77-.1-1.05-.44-5.4-.59-8.03-.15-2.64-.31-6.99-.33-8.04-.02-1.06,.3-1.65,1.3-1.93l24.58-7.23c1.08-.33,2.17-.61,2.87-.65Zm-9.48,18.35l-.18-3.16-10.02,2.07v.18s10.2,.91,10.2,.91Z" style="fill:#34a245; stroke:#121e2c; stroke-miterlimit:10;"/></g></g></g></svg>