<svg xmlns="http://www.w3.org/2000/svg" viewBox="0 0 192.24 192.32">
  <g id="Layer_2" data-name="Layer 2">
    <g id="Layer_9" data-name="Layer 9">
      <g>
        <g>
          <path d="M18.65,60.77a1.26,1.26,0,0,1,1.68-.59c1,.29,2.22.74,3,1s2,.76,3,1.22A1.26,1.26,0,0,1,27.22,64c-.1.62-1.17,3.6-1.89,5.49s-1.87,4.85-2.21,5.38a1.26,1.26,0,0,1-1.68.59c-1-.29-2.21-.74-3-1.06s-2-.76-3-1.21a1.25,1.25,0,0,1-.87-1.55c.09-.62,1.17-3.6,1.88-5.5S18.31,61.3,18.65,60.77Z" fill="#6e8e9b" stroke="#17242d" stroke-miterlimit="10"/>
          <path d="M29.24,27.64c2.63-2.33,4.16-2.7,6.8-1.66a45.07,45.07,0,0,1,9,6.29,45.29,45.29,0,0,1,7.62,7.89c1.44,2.44,1.31,4-.58,7a85.65,85.65,0,0,1-6,7.66c-6.32,7.39-7.82,9-8.45,9.62a1.38,1.38,0,0,1-2.12,0C32.68,62.24,28.93,59,25,55.69s-7.66-6.54-10.29-9a1.37,1.37,0,0,1-.29-2.1c.5-.73,1.87-2.46,8.18-9.85A88.46,88.46,0,0,1,29.24,27.64ZM28.54,41l5.22,4.46L39,49.91c.51.43.75.41,1.5-.46a12.87,12.87,0,0,0,1-1.26c.36-.56.18-.89-.47-1.56-.88-.86-2.79-2.55-4.66-4.15s-3.85-3.23-4.84-4c-.76-.54-1.11-.67-1.61-.22a12,12,0,0,0-1.1,1.15C28,40.32,28,40.56,28.54,41Z" fill="#6e8e9b" stroke="#17242d" stroke-miterlimit="10"/>
          <path d="M53.32,10.6a1.38,1.38,0,0,1,2,.67c1.88,3,4.33,7.31,6.88,11.78s5,8.75,6.66,11.91A1.37,1.37,0,0,1,68.44,37c-.72.51-2.78,1.79-4.69,2.88s-4,2.22-4.86,2.58-1.42.26-2-.67C55,38.79,52.59,34.59,50,30s-5-8.75-6.66-11.9a1.38,1.38,0,0,1,.44-2.08c.72-.51,2.78-1.79,4.69-2.88S52.51,11,53.32,10.6Z" fill="#6e8e9b" stroke="#17242d" stroke-miterlimit="10"/>
          <path d="M102.69,28.4a1.22,1.22,0,0,1-1.09,1.48c-.86.21-3.29.63-5.29.91s-4,.5-4.86.53c-1.46.07-1.7-.12-2.2-1.78l-.74-2.47-4.62.63,0,2.59c0,1.73-.21,2-1.63,2.31-.86.21-2.82.52-4.82.8s-4.46.52-5.34.56a1.22,1.22,0,0,1-1.45-1.14,14.42,14.42,0,0,1,.08-2.94L73,4.37c.08-1,.6-1.46,1.64-1.65s5.34-.87,8-1.23,6.94-.87,8-1a1.65,1.65,0,0,1,2,1.14l9.16,23.93A15,15,0,0,1,102.69,28.4Zm-19-8L86.78,20l-2.87-9.82-.17,0Z" fill="#6e8e9b" stroke="#17242d" stroke-miterlimit="10"/>
          <path d="M134.7,9c.77.21,2.93,1,4.36,1.51,1.77.69,3.7,1.54,4.37,1.89s.89.87.53,1.91c-1.17,3.37-2.94,7.92-4.84,12.8s-3.65,9.39-5.07,12.66c-.44,1-.87,1.27-1.64,1.06s-2.81-.9-4.53-1.57a32.74,32.74,0,0,1-3.15-1.37c-1.93-1-2.25-1.39-2.58-3.32l-2-11-3.62,9.31c-.4,1-.83,1.28-1.64,1.06s-2.94-.95-4.37-1.51c-1.76-.69-3.7-1.53-4.37-1.89s-.89-.86-.53-1.91c1.17-3.36,2.93-7.87,4.83-12.75s3.65-9.39,5.07-12.67c.44-1,1-1.21,1.88-1s3.1,1,4.41,1.53c1.07.41,2.37,1,2.84,1.2,1.93,1,2.23,1.43,2.57,3.36l2.08,11.38,3.77-9.67C133.45,9,133.89,8.76,134.7,9Z" fill="#6e8e9b" stroke="#17242d" stroke-miterlimit="10"/>
          <path d="M157,66.35a1.21,1.21,0,0,1-1.83-.13c-.63-.63-2.27-2.47-3.57-4s-2.52-3.11-3-3.85c-.83-1.2-.8-1.51.35-2.81l1.71-1.93-3-3.59-2.22,1.33c-1.49.89-1.8.86-2.83-.17-.63-.62-1.92-2.12-3.22-3.68s-2.79-3.51-3.29-4.24a1.22,1.22,0,0,1,.2-1.83A15.17,15.17,0,0,1,138.84,40l22.9-11.46A1.66,1.66,0,0,1,164,29c.7.78,3.55,4.08,5.24,6.11s4.4,5.44,5,6.28a1.65,1.65,0,0,1,.09,2.32l-15.49,20.4A14,14,0,0,1,157,66.35ZM153.71,46l2,2.44,6.84-7.61-.12-.14Z" fill="#6e8e9b" stroke="#17242d" stroke-miterlimit="10"/>
          <path d="M177,71.57a1.25,1.25,0,0,1-.87,1.55c-1,.46-2.15.91-3,1.22s-2,.76-3,1a1.25,1.25,0,0,1-1.68-.58c-.34-.53-1.5-3.48-2.22-5.37s-1.79-4.88-1.89-5.5a1.25,1.25,0,0,1,.87-1.55c1-.46,2.15-.91,3-1.22s2-.76,3-1.05a1.25,1.25,0,0,1,1.68.58c.34.53,1.5,3.48,2.22,5.37S176.87,71,177,71.57Z" fill="#6e8e9b" stroke="#17242d" stroke-miterlimit="10"/>
        </g>
        <g>
          <path d="M.6,91.68c-.07-.88-.13-3-.09-5.28s.16-4.31.26-5.19.51-1.36,1.61-1.38c3.56-.08,8.4,0,13.64.09s10,.16,13.59.35c1.1.06,1.53.51,1.56,1.44.1,2,.08,8.4,0,13.77-.05,3-.2,6.86-.46,9.36-.53,5.19-2,6.09-10.49,6-8.09-.13-9.88-1.13-10.23-6.28-.18-2.52-.25-6.43-.2-9.38l0-1.5c0-.3-.12-.44-.43-.44l-7.22-.12C1.06,93.05.68,92.61.6,91.68Zm22,1.68-4.22-.07c-.66,0-.89.12-.89.43l-.05,2.77c0,.66.17.79.87.93a9,9,0,0,0,2.11.21,8.89,8.89,0,0,0,2.11-.14c.71-.12.89-.25.9-.9l0-2.78C23.5,93.51,23.24,93.37,22.62,93.36Z" fill="#6e8e9b" stroke="#17242d" stroke-miterlimit="10"/>
          <path d="M18.21,151.92a.86.86,0,0,1-.69.1c-.3-.1-.57-.36-.9-.94-.62-1.07-1.53-2.82-2.28-4.37s-1.59-3.24-2.07-4.52c-.58-1.58-.44-2.19.73-3.4l5.32-5.44L17.65,132l-6.88,3.37a1.32,1.32,0,0,1-2-.53c-.47-.75-1.44-2.53-2.42-4.54s-1.72-3.72-2-4.55-.17-1.43.8-2c3.14-1.68,7.49-3.81,12.19-6.11s9-4.42,12.27-5.86a1.38,1.38,0,0,1,2.05.56c1,1.74,3.93,7.53,6.09,12,1.49,3,3.1,6.52,4,8.87,1.89,4.86.68,6.48-6.08,9.79-6,3-7.76,2.87-9.92.15l-6.12,7.61A3.93,3.93,0,0,1,18.21,151.92Zm9.22-19.8a8.56,8.56,0,0,0,1.89-.73,9.36,9.36,0,0,0,1.74-1c.58-.43.68-.63.39-1.22l-1.38-2.81c-.13-.27-.43-.28-1,0l-3.64,1.78c-.59.29-.73.51-.59.79l1.37,2.8C26.52,132.28,26.74,132.32,27.43,132.12Z" fill="#6e8e9b" stroke="#17242d" stroke-miterlimit="10"/>
          <path d="M55.08,146.74a1.38,1.38,0,0,1-.07,2.12c-2.37,2.67-5.77,6.24-9.32,10s-6.95,7.29-9.5,9.78a1.37,1.37,0,0,1-2.11.18c-.7-.55-2.51-2.15-4.11-3.67s-3.28-3.25-3.86-3.92a1.38,1.38,0,0,1,.07-2.12c2.37-2.67,5.71-6.18,9.32-10s7-7.29,9.5-9.78a1.37,1.37,0,0,1,2.11-.18c.7.54,2.52,2.15,4.11,3.67S54.5,146.07,55.08,146.74Z" fill="#6e8e9b" stroke="#17242d" stroke-miterlimit="10"/>
          <path d="M72.54,182.13c-.32.82-.68,1.63-1.08,2.51s-.81,1.81-1.21,2.6a1.46,1.46,0,0,1-2,.81c-1.26-.42-9-3.85-11.16-4.8s-9.32-4.18-11.13-5.18c-.81-.46-1-1-.64-2,1.34-3.3,3.35-7.8,5.46-12.5s4.12-9.2,5.7-12.39c.49-1,1-1.17,1.93-.88,2,.69,9.07,3.87,11.28,4.86s9.86,4.47,11,5.13a1.47,1.47,0,0,1,.76,2.07c-.32.82-.74,1.75-1.13,2.63s-.76,1.69-1.16,2.48-.78,1-1.51.67l-11.68-5.24c-.37-.16-.56-.05-.81.51l-.68,1.53c-.26.56-.17.7.19.86l10.88,4.87c.69.31.91.55.65,1.25s-.73,1.75-1.09,2.55-.78,1.73-1.18,2.51-.68.66-1.36.36l-10.89-4.88c-.36-.16-.55-.05-.8.51l-.69,1.53c-.25.56-.16.69.2.85L72,180.56C72.76,180.88,72.87,181.27,72.54,182.13Z" fill="#6e8e9b" stroke="#17242d" stroke-miterlimit="10"/>
          <path d="M107.72,160.55c3.49.32,4.81,1.18,5.86,3.82a45.6,45.6,0,0,1,1.57,10.84,45.74,45.74,0,0,1-.54,10.95c-.8,2.73-2,3.71-5.48,4.36a85.55,85.55,0,0,1-9.69.85c-9.71.46-11.91.48-12.8.43s-1.38-.42-1.48-1.52c-.3-3.55-.53-8.47-.77-13.62s-.48-10.06-.51-13.62c0-1.1.41-1.52,1.33-1.65s3.07-.32,12.78-.78A86.38,86.38,0,0,1,107.72,160.55Zm-10.21,8.63.32,6.85c.12,2.46.25,5.23.33,6.86,0,.66.21.82,1.36.77a11.18,11.18,0,0,0,1.57-.16c.66-.12.77-.48.82-1.41,0-1.23,0-3.78-.16-6.24s-.28-5-.43-6.24c-.13-.92-.28-1.26-.94-1.32a12.15,12.15,0,0,0-1.59,0C97.65,168.33,97.48,168.52,97.51,169.18Z" fill="#6e8e9b" stroke="#17242d" stroke-miterlimit="10"/>
          <path d="M125.87,153.68c.88-.27,1.44-.08,1.91.92,1.5,3.24,3.4,7.78,5.4,12.53s3.89,9.29,5.15,12.62c.38,1,.13,1.57-.69,2s-3,1.44-5,2.29-4.3,1.7-5.14,2-1.45.08-1.91-.91c-1.5-3.24-3.37-7.7-5.4-12.53s-3.89-9.29-5.15-12.63a1.37,1.37,0,0,1,.68-2c.78-.42,3-1.44,5-2.29S125,153.94,125.87,153.68Z" fill="#6e8e9b" stroke="#17242d" stroke-miterlimit="10"/>
          <path d="M165.59,151.46c.63.62,1.22,1.27,1.88,2s1.34,1.46,1.9,2.14a1.47,1.47,0,0,1-.06,2.21c-.89,1-7.11,6.77-8.83,8.34s-7.52,6.91-9.16,8.18a1.37,1.37,0,0,1-2.11-.21c-2.51-2.54-5.84-6.17-9.32-10s-6.82-7.42-9.14-10.14a1.37,1.37,0,0,1,0-2.12c1.4-1.53,7.14-6.8,8.92-8.43s8-7.3,9.07-8.09a1.46,1.46,0,0,1,2.2.12c.63.62,1.31,1.37,2,2.08s1.25,1.36,1.81,2,.61,1.12,0,1.65l-9.43,8.67c-.3.26-.28.48.14.94l1.13,1.23c.42.45.58.43.87.16l8.78-8.07c.55-.5.87-.61,1.41-.09s1.31,1.36,1.91,2,1.28,1.39,1.84,2.07.33.89-.22,1.39l-8.78,8.07c-.29.27-.27.49.15.94l1.13,1.23c.42.46.57.43.86.16l9.43-8.66C164.53,150.76,164.93,150.81,165.59,151.46Z" fill="#6e8e9b" stroke="#17242d" stroke-miterlimit="10"/>
          <path d="M158.12,114.3c.2-.77.91-3,1.45-4.39.66-1.77,1.49-3.72,1.83-4.39s.85-.9,1.9-.56c3.38,1.13,8,2.83,12.86,4.67s9.44,3.52,12.73,4.89c1,.43,1.28.86,1.09,1.63s-.87,2.82-1.52,4.55a31.33,31.33,0,0,1-1.32,3.17c-1,1.94-1.36,2.26-3.28,2.63l-11,2.15,9.35,3.5c1,.38,1.3.81,1.09,1.62s-.92,2.95-1.46,4.39c-.66,1.77-1.48,3.72-1.82,4.39s-.86.9-1.9.56c-3.39-1.12-7.92-2.82-12.82-4.65s-9.44-3.52-12.73-4.9c-1-.42-1.24-1-1-1.87s1-3.11,1.47-4.43c.4-1.07.94-2.37,1.16-2.85,1-2,1.4-2.25,3.32-2.61l11.36-2.24-9.73-3.64C158.17,115.54,157.91,115.11,158.12,114.3Z" fill="#6e8e9b" stroke="#17242d" stroke-miterlimit="10"/>
          <path d="M188.63,74.41a1.22,1.22,0,0,1,1.4,1.2c.13.87.36,3.33.48,5.35s.18,4,.15,4.88c0,1.46-.26,1.69-2,2.06l-2.52.54.26,4.65,2.57.25c1.73.17,2,.38,2.18,1.82.14.87.29,2.85.41,4.87s.17,4.48.13,5.37-.45,1.3-1.24,1.34a14.59,14.59,0,0,1-2.93-.31l-25.24-4.37c-1-.16-1.41-.72-1.51-1.77s-.44-5.4-.59-8-.32-7-.33-8.05a1.64,1.64,0,0,1,1.3-1.92l24.57-7.23A15.28,15.28,0,0,1,188.63,74.41Zm-9.48,18.35L179,89.6l-10,2.07v.18Z" fill="#6e8e9b" stroke="#17242d" stroke-miterlimit="10"/>
        </g>
      </g>
    </g>
  </g>
</svg>
